<?xml version="1.0" encoding="UTF-8" standalone="no"?>
<!-- Generator: Adobe Illustrator 19.1.0, SVG Export Plug-In . SVG Version: 6.00 Build 0)  -->

<svg
   xmlns:dc="http://purl.org/dc/elements/1.1/"
   xmlns:cc="http://creativecommons.org/ns#"
   xmlns:rdf="http://www.w3.org/1999/02/22-rdf-syntax-ns#"
   xmlns:svg="http://www.w3.org/2000/svg"
   xmlns="http://www.w3.org/2000/svg"
   xmlns:sodipodi="http://sodipodi.sourceforge.net/DTD/sodipodi-0.dtd"
   xmlns:inkscape="http://www.inkscape.org/namespaces/inkscape"
   id="Layer_1"
   xml:space="preserve"
   height="101px"
   viewBox="-247 370.9 100 101"
   width="100px"
   version="1.1"
   y="0px"
   x="0px"
   inkscape:version="0.91 r13725"
   sodipodi:docname="g1-vs-cpu.svg"
   style="enable-background:new -247 370.9 100 101"><metadata
     id="metadata35"><rdf:RDF><cc:Work
         rdf:about=""><dc:format>image/svg+xml</dc:format><dc:type
           rdf:resource="http://purl.org/dc/dcmitype/StillImage" /><dc:title>Slice 1</dc:title></cc:Work></rdf:RDF></metadata><defs
     id="defs33" /><sodipodi:namedview
     pagecolor="#ffffff"
     bordercolor="#666666"
     borderopacity="1"
     objecttolerance="10"
     gridtolerance="10"
     guidetolerance="10"
     inkscape:pageopacity="0"
     inkscape:pageshadow="2"
     inkscape:window-width="1301"
     inkscape:window-height="744"
     id="namedview31"
     showgrid="false"
     inkscape:zoom="2.3366337"
     inkscape:cx="-28.718328"
     inkscape:cy="40.439184"
     inkscape:window-x="65"
     inkscape:window-y="24"
     inkscape:window-maximized="1"
     inkscape:current-layer="Layer_1" /><style
     type="text/css"
     id="style3">
	.st0{fill:none;}
	.st1{fill:none;stroke:#FFFFFF;stroke-width:4;}
</style><title
     id="title5">Slice 1</title><desc
     id="desc7">Created with Sketch.</desc><g
     id="g4339"
     transform="matrix(1.7616272,0,0,1.7616272,134.25676,-323.35979)"><path
       style="fill:none;stroke:#808080;stroke-width:2.47619057;stroke-opacity:1"
       inkscape:connector-curvature="0"
       class="st1"
       d="m -189.16609,435.59992 c 0,4.27143 1.67143,4.20953 6.00476,4.27143 l 10.27619,0 c 4.33334,-0.0619 6.00476,0 6.00476,-4.27143 l 0,-13.74286 c 0,-4.27142 -1.67142,-4.20952 -6.00476,-4.27142 l -10.27619,0 c -4.33333,0.0619 -6.00476,0 -6.00476,4.27142 l 0,13.74286 z"
       id="path4270" /><path
       style="fill:none;stroke:#808080;stroke-width:2.47619057;stroke-opacity:1"
       inkscape:connector-curvature="0"
       class="st1"
       d="m -178.02323,417.58564 0,-4.95239"
       id="path4211" /><path
       style="fill:none;stroke:#808080;stroke-width:2.47619057;stroke-opacity:1"
       inkscape:connector-curvature="0"
       class="st1"
       d="m -171.83276,417.58564 0,-4.95239"
       id="path4213" /><path
       style="fill:none;stroke:#808080;stroke-width:2.47619057;stroke-opacity:1"
       inkscape:connector-curvature="0"
       class="st1"
       d="m -184.21371,417.58564 0,-4.95239"
       id="path4215" /><path
       style="fill:none;stroke:#808080;stroke-width:2.47619057;stroke-opacity:1"
       inkscape:connector-curvature="0"
       class="st1"
       d="m -178.02323,444.82373 0,-4.95238"
       id="path4217" /><path
       style="fill:none;stroke:#808080;stroke-width:2.47619057;stroke-opacity:1"
       inkscape:connector-curvature="0"
       class="st1"
       d="m -171.83276,444.82373 0,-4.95238"
       id="path4219" /><path
       style="fill:none;stroke:#808080;stroke-width:2.47619057;stroke-opacity:1"
       inkscape:connector-curvature="0"
       class="st1"
       d="m -184.21371,444.82373 0,-4.95238"
       id="path4221" /><path
       style="fill:none;stroke:#808080;stroke-width:2.47619057;stroke-opacity:1"
       inkscape:connector-curvature="0"
       class="st1"
       d="m -189.16609,428.72849 -4.95238,0"
       id="path4223" /><path
       style="fill:none;stroke:#808080;stroke-width:2.47619057;stroke-opacity:1"
       inkscape:connector-curvature="0"
       class="st1"
       d="m -189.16609,422.53802 -4.95238,0"
       id="path4225" /><path
       style="fill:none;stroke:#808080;stroke-width:2.47619057;stroke-opacity:1"
       inkscape:connector-curvature="0"
       class="st1"
       d="m -189.16609,434.91897 -4.95238,0"
       id="path4227" /><path
       style="fill:none;stroke:#808080;stroke-width:2.47619057;stroke-opacity:1"
       inkscape:connector-curvature="0"
       class="st1"
       d="m -161.92799,428.72849 -4.95239,0"
       id="path4229" /><path
       style="fill:none;stroke:#808080;stroke-width:2.47619057;stroke-opacity:1"
       inkscape:connector-curvature="0"
       class="st1"
       d="m -161.92799,422.53802 -4.95239,0"
       id="path4231" /><path
       style="fill:none;stroke:#808080;stroke-width:2.47619057;stroke-opacity:1"
       inkscape:connector-curvature="0"
       class="st1"
       d="m -161.92799,434.91897 -4.95239,0"
       id="path4233" /></g><circle
     cx="315.43848"
     cy="-502.33115"
     r="24.761906"
     id="path4214"
     transform="matrix(-1,2.5352e-6,-2.5352e-6,-1,0,0)"
     class="st1"
     style="fill:none;stroke:#808080;stroke-width:2.47619057;stroke-opacity:1" /><path
     id="path4188"
     d="m -218.48319,383.89847 c -2.20043,0 -4.29656,0.41851 -6.21888,1.26369 -1.90743,0.80254 -3.59445,1.98267 -4.99616,3.50003 l -0.01,0.0117 -0.01,0.0117 c -1.36912,1.52847 -2.42213,3.36056 -3.16214,5.43953 l 0,0.004 c -0.75041,2.07351 -1.11122,4.34143 -1.11122,6.76962 0,2.46606 0.36041,4.75347 1.11522,6.83407 0.74151,2.04403 1.79632,3.85632 3.16024,5.37898 l 0.01,0.0117 0.01,0.01 c 0.6757,0.73153 1.41961,1.38442 2.21872,1.96291 -0.6293,0.18822 -1.24661,0.39254 -1.84182,0.62697 -3.07904,1.21276 -5.68317,2.89665 -7.7325,5.05865 l -0.01,0.01 -0.01,0.01 c -2.01682,2.1869 -3.53394,4.77429 -4.52935,7.6915 l -0.01,0.0176 -0.01,0.0176 C -242.54489,431.41669 -243,434.5163 -243,437.80228 l 0,6.05866 0.75191,0.60146 c 0,0 2.16743,1.70952 6.13098,3.29497 3.96345,1.58545 9.85032,3.14262 17.61732,3.14262 1.95252,0 3.78574,-0.0989 5.50006,-0.27148 l 0,-4.02936 c -1.69822,0.18537 -3.52324,0.30078 -5.50006,0.30078 -7.23329,0 -12.59456,-1.44089 -16.13101,-2.8555 -2.46063,-0.98428 -3.67364,-1.73401 -4.36725,-2.2051 l 0,-4.03716 c 0,-2.90957 0.3992,-5.57881 1.18161,-8.0333 0.82772,-2.41948 2.04373,-4.47748 3.66805,-6.24227 1.60002,-1.68579 3.66635,-3.04982 6.28718,-4.08209 2.56393,-1.00989 5.67637,-1.54494 9.36142,-1.54494 0,0 0.01,0 0.012,0 2.19372,0 4.27985,-0.39503 6.19927,-1.19923 l 0.018,-0.006 0.017,-0.008 c 1.90393,-0.83969 3.57135,-2.04267 4.93957,-3.56839 1.40101,-1.52126 2.47783,-3.33696 3.22074,-5.38484 0.75481,-2.0806 1.11721,-4.36801 1.11721,-6.83407 0,-2.42974 -0.3638,-4.69895 -1.11521,-6.77352 -0.74131,-2.08258 -1.81643,-3.91825 -3.22274,-5.44535 -1.36952,-1.5271 -3.04554,-2.71409 -4.95517,-3.51762 -1.92232,-0.84518 -4.01835,-1.26369 -6.21877,-1.26369 z m 0,3.99809 c 1.70662,0 3.22334,0.31411 4.61915,0.9297 l 0.018,0.008 0.016,0.006 c 1.40162,0.58729 2.55994,1.41177 3.54695,2.51372 l 0.012,0.0117 0.01,0.0117 c 1.02171,1.10603 1.82332,2.44714 2.40823,4.09185 l 0,0.006 0,0.006 c 0.57561,1.5866 0.87701,3.38164 0.87701,5.41804 0,2.07619 -0.3029,3.89016 -0.87701,5.47272 -0.58331,1.60801 -1.38412,2.938 -2.41213,4.05083 l -0.01,0.0117 -0.012,0.01 c -0.98841,1.10351 -2.15583,1.94678 -3.56255,2.57036 -1.39911,0.58372 -2.92353,0.88463 -4.63685,0.88463 0,0 -0.01,0 -0.01,0 -1.70923,-0.001 -3.23074,-0.30206 -4.62706,-0.88478 -1.40592,-0.62311 -2.59503,-1.47105 -3.62305,-2.58012 -0.99521,-1.11315 -1.78712,-2.44729 -2.37303,-4.06255 -0.5742,-1.58256 -0.87701,-3.39653 -0.87701,-5.47272 0,-2.0364 0.30141,-3.83144 0.87701,-5.41804 l 0,-0.006 0,-0.006 c 0.58691,-1.65026 1.37932,-2.99577 2.36713,-4.10161 1.02702,-1.10834 2.20823,-1.9403 3.60945,-2.52738 l 0.018,-0.006 0.016,-0.008 c 1.39582,-0.61559 2.91253,-0.92969 4.61926,-0.92969 z"
     style="color:#000000;font-style:normal;font-variant:normal;font-weight:normal;font-stretch:normal;font-size:medium;line-height:125%;font-family:Ubuntu;-inkscape-font-specification:'Ubuntu, Normal';text-indent:0;text-align:start;text-decoration:none;text-decoration-line:none;text-decoration-style:solid;text-decoration-color:#000000;letter-spacing:0px;word-spacing:0px;text-transform:none;direction:ltr;block-progression:tb;writing-mode:lr-tb;baseline-shift:baseline;text-anchor:start;white-space:normal;clip-rule:nonzero;display:inline;overflow:visible;visibility:visible;opacity:1;isolation:auto;mix-blend-mode:normal;color-interpolation:sRGB;color-interpolation-filters:linearRGB;solid-color:#000000;solid-opacity:1;fill:#808080;fill-opacity:1;fill-rule:nonzero;stroke:none;stroke-width:3.99999976;stroke-linecap:butt;stroke-linejoin:miter;stroke-miterlimit:4;stroke-dasharray:none;stroke-dashoffset:0;stroke-opacity:1;color-rendering:auto;image-rendering:auto;shape-rendering:auto;text-rendering:auto;enable-background:accumulate"
     inkscape:connector-curvature="0" /><path
     id="path4202-6"
     d="m -348.94435,369.49743 c -2.3781,0 -4.6367,0.44751 -6.7109,1.34766 -2.0626,0.85573 -3.8865,2.11186 -5.4043,3.73437 l -0.01,0.0117 -0.01,0.0117 c -1.4789,1.63014 -2.6187,3.58896 -3.4219,5.81445 -0.8167,2.22347 -1.2129,4.65775 -1.2129,7.26954 0,2.64876 0.3943,5.10601 1.2129,7.33399 0.8049,2.1911 1.9464,4.12748 3.4219,5.7539 l 0.01,0.01 0.01,0.0117 c 0.8393,0.89724 1.7798,1.67632 2.7929,2.35547 -0.6852,0.2056 -1.3573,0.42979 -2.0039,0.6875 -3.2708,1.30359 -6.0318,3.11177 -8.2012,5.42773 l -0.01,0.01 -0.01,0.01 c -2.137,2.34487 -3.7422,5.11477 -4.7969,8.24219 l -0.01,0.0176 -0.01,0.0176 c -0.9794,3.09823 -1.4608,6.42496 -1.4608,9.95496 l 0,6.45703 0.7402,0.59961 c 0,0 2.2929,1.83101 6.5078,3.53711 4.215,1.70609 10.482,3.38477 18.752,3.38477 8.2701,0 14.5351,-1.67868 18.75,-3.38477 4.215,-1.7061 6.5079,-3.53711 6.5079,-3.53711 l 0.7421,-0.59961 0,0 0,-6.45703 c 0,-3.53508 -0.5168,-6.86784 -1.5605,-9.97071 -0.9972,-3.14622 -2.6143,-5.93398 -4.8223,-8.2832 -1.2349,-1.31795 -2.6696,-2.46569 -4.2734,-3.45507 -1.0351,0.99741 -2.1689,1.89499 -3.3809,2.66796 1.8811,0.9737 3.4478,2.14792 4.7344,3.52149 l 0,0.002 0,0 c 1.8033,1.91864 3.1015,4.14765 3.9297,6.76758 l 0.01,0.0195 0.01,0.0176 c 0.8985,2.66492 1.3555,5.55826 1.3555,8.71289 l 0,4.44922 c -0.7087,0.49458 -2.0238,1.33596 -4.75,2.43945 -3.7851,1.53198 -9.5182,3.0898 -17.2483,3.0898 -7.73,0 -13.465,-1.55782 -17.25,-3.08985 -2.7273,-1.10393 -4.0418,-1.94511 -4.75,-2.43945 l 0,-4.44922 c 0,-3.15862 0.4283,-6.0595 1.2695,-8.72852 0.8904,-2.63344 2.1997,-4.87808 3.9473,-6.79883 1.7231,-1.83698 3.947,-3.31798 6.7559,-4.43749 2.7089,-1.07969 5.9848,-1.65595 9.8457,-1.67383 2.3729,0 4.6231,-0.42198 6.6953,-1.2793 l 0.018,-0.008 0.018,-0.008 c 2.0569,-0.89578 3.8562,-2.17718 5.336,-3.80664 1.5158,-1.62492 2.6838,-3.56276 3.4902,-5.75781 0.8185,-2.22798 1.2109,-4.68523 1.2109,-7.33399 0,-2.60733 -0.3932,-5.03742 -1.207,-7.25781 l 0,-0.002 c -0.8048,-2.23374 -1.9724,-4.19873 -3.4941,-5.83008 -1.4831,-1.63301 -3.2937,-2.89722 -5.3594,-3.75391 -2.0732,-0.89898 -4.3304,-1.34568 -6.7071,-1.34568 z m 0,4 c 1.8919,0 3.5787,0.34162 5.1309,1.01758 l 0.018,0.008 0.018,0.008 c 1.5581,0.64463 2.8479,1.55029 3.9433,2.75781 l 0.01,0.01 0.012,0.0117 c 1.1337,1.21174 2.019,2.6796 2.6641,4.4707 l 0,0.008 0,0.006 c 0.6355,1.72991 0.9668,3.68139 0.9668,5.89258 0,2.25394 -0.3327,4.22922 -0.9668,5.95507 -0.6435,1.75151 -1.53,3.20533 -2.6699,4.42383 l -0.012,0.01 -0.01,0.0117 c -1.0985,1.21092 -2.4007,2.13819 -3.9668,2.82227 -1.5534,0.63915 -3.2473,0.96874 -5.1426,0.96874 -1.8953,0 -3.5912,-0.32959 -5.1445,-0.96874 -1.5669,-0.68436 -2.8946,-1.6153 -4.0372,-2.83398 -1.1022,-1.21807 -1.9754,-2.67618 -2.621,-4.4336 -0.6341,-1.72585 -0.9668,-3.70114 -0.9668,-5.95508 0,-2.21119 0.3312,-4.16267 0.9668,-5.89258 l 0,-0.006 0,-0.008 c 0.6471,-1.79674 1.5191,-3.26907 2.6152,-4.48046 1.1394,-1.21521 2.4551,-2.12472 4.0137,-2.76954 l 0.018,-0.008 0.018,-0.008 c 1.552,-0.67603 3.2408,-1.01765 5.1327,-1.01765 z"
     style="color:#000000;font-style:normal;font-variant:normal;font-weight:normal;font-stretch:normal;font-size:medium;line-height:125%;font-family:Ubuntu;-inkscape-font-specification:'Ubuntu, Normal';text-indent:0;text-align:start;text-decoration:none;text-decoration-line:none;text-decoration-style:solid;text-decoration-color:#000000;letter-spacing:0px;word-spacing:0px;text-transform:none;direction:ltr;block-progression:tb;writing-mode:lr-tb;baseline-shift:baseline;text-anchor:start;white-space:normal;clip-rule:nonzero;display:inline;overflow:visible;visibility:visible;opacity:1;isolation:auto;mix-blend-mode:normal;color-interpolation:sRGB;color-interpolation-filters:linearRGB;solid-color:#000000;solid-opacity:1;fill:#808080;fill-opacity:1;fill-rule:nonzero;stroke:none;stroke-width:4.00000048;stroke-linecap:butt;stroke-linejoin:miter;stroke-miterlimit:4;stroke-dasharray:none;stroke-dashoffset:0;stroke-opacity:1;color-rendering:auto;image-rendering:auto;shape-rendering:auto;text-rendering:auto;enable-background:accumulate"
     inkscape:connector-curvature="0" /><rect
     y="150.99997"
     x="375.89999"
     height="96"
     width="96"
     id="rect4782"
     style="color:#000000;display:inline;overflow:visible;visibility:visible;fill:none;stroke:none;stroke-width:4;marker:none;enable-background:accumulate"
     transform="matrix(0,1,-1,0,0,0)" /></svg>