<?xml version="1.0" encoding="UTF-8" standalone="no"?>
<!-- Created with Inkscape (http://www.inkscape.org/) -->

<svg
   xmlns:dc="http://purl.org/dc/elements/1.1/"
   xmlns:cc="http://creativecommons.org/ns#"
   xmlns:rdf="http://www.w3.org/1999/02/22-rdf-syntax-ns#"
   xmlns:svg="http://www.w3.org/2000/svg"
   xmlns="http://www.w3.org/2000/svg"
   xmlns:sodipodi="http://sodipodi.sourceforge.net/DTD/sodipodi-0.dtd"
   xmlns:inkscape="http://www.inkscape.org/namespaces/inkscape"
   width="511.255"
   height="511.255"
   viewBox="0 0 511.25501 511.25501"
   id="svg2"
   version="1.1"
   inkscape:version="0.91 r13725"
   sodipodi:docname="work-in-progress.svg">
  <defs
     id="defs4" />
  <sodipodi:namedview
     id="base"
     pagecolor="#ffffff"
     bordercolor="#666666"
     borderopacity="1.0"
     inkscape:pageopacity="0.0"
     inkscape:pageshadow="2"
     inkscape:zoom="0.49497475"
     inkscape:cx="203.06823"
     inkscape:cy="210.72251"
     inkscape:document-units="px"
     inkscape:current-layer="layer1"
     showgrid="false"
     inkscape:object-paths="true"
     inkscape:snap-intersection-paths="true"
     inkscape:object-nodes="true"
     inkscape:snap-smooth-nodes="true"
     inkscape:window-width="1301"
     inkscape:window-height="744"
     inkscape:window-x="65"
     inkscape:window-y="24"
     inkscape:window-maximized="1"
     units="px" />
  <metadata
     id="metadata7">
    <rdf:RDF>
      <cc:Work
         rdf:about="">
        <dc:format>image/svg+xml</dc:format>
        <dc:type
           rdf:resource="http://purl.org/dc/dcmitype/StillImage" />
        <dc:title></dc:title>
      </cc:Work>
    </rdf:RDF>
  </metadata>
  <g
     inkscape:label="Livello 1"
     inkscape:groupmode="layer"
     id="layer1"
     transform="translate(0,-541.10716)">
    <g
       id="g4147" />
    <g
       id="g4164">
      <path
         sodipodi:nodetypes="ssssssssssssssssss"
         inkscape:connector-curvature="0"
         id="path4155"
         d="M 236.92529,1051.8895 C 183.92512,1047.6986 136.24871,1028.7752 93.425285,994.93217 88.241254,990.83528 68.809808,972.04882 62.96896,965.48678 57.165026,958.96621 45.211021,942.8449 37.798755,931.54195 c -4.212326,-6.42337 -16.283357,-30.03904 -19.423508,-38 -8.138684,-20.63332 -13.0334074,-39.3777 -17.1040255,-65.5 -1.70905392,-10.96748 -1.69038249,-51.48045 0.029035,-63 4.8453475,-32.46229 12.0546865,-55.93748 25.4896815,-83 19.305547,-38.88775 46.431664,-69.90364 85.635352,-97.91508 13.92072,-9.9465 43.82289,-24.47615 63,-30.61208 29.05938,-9.29788 49.52966,-12.45294 80.5,-12.40738 26.29767,0.0387 39.51681,1.66666 64.5,7.94331 27.19644,6.83269 56.81806,20.30779 79,35.93768 18.21952,12.83788 25.24948,18.80607 40.11178,34.05355 44.46281,45.61509 69.13356,104.06959 71.53756,169.5 2.54717,69.3269 -21.86989,133.71213 -70.08389,184.80389 -41.475,43.95056 -99.52326,72.30226 -159.98913,78.14126 -9.95557,0.9614 -34.2069,1.1828 -44.07632,0.4024 z"
         style="fill:#888888;fill-opacity:1" />
      <path
         sodipodi:nodetypes="csssssssssscccccccscsscsccccssccscscccsccscccccccsssssscsc"
         inkscape:connector-curvature="0"
         id="path4151"
         d="m 277.85623,768.36821 28.73073,-0.42056 c 24.70652,-0.36166 25.36196,0.66587 26.96875,-1.31843 1.53288,-1.89304 3.17526,-2.08155 23.6536,-2.71506 21.80494,-0.67454 22.01864,-0.66106 23.3517,1.47351 1.18771,1.90183 2.2451,2.15428 9.02304,2.15428 4.22272,0 8.39278,0.27442 9.26682,0.60982 1.86172,0.7144 12.57442,17.65889 12.57442,19.88919 0,1.34336 -12.30665,24.99586 -46.19946,88.792 -5.49067,10.33505 -9.73769,19.43039 -9.43781,20.21186 0.40529,1.05618 2.93117,1.49481 9.84125,1.709 l 9.29602,0.28813 0,13 0,13 -51,0 -51,0 0,-13 0,-13 25,-0.54404 c 13.75,-0.29922 25.06897,-0.63672 25.15326,-0.75 0.0843,-0.11328 9.48271,-17.86846 20.88537,-39.45596 11.40265,-21.5875 23.4085,-44.3123 26.67966,-50.49956 4.3194,-8.16996 5.58267,-11.38653 4.61464,-11.74989 -0.73311,-0.27517 -22.93293,-0.61287 -49.33293,-0.75043 l -48,-0.25012 -0.28174,-11.75 c -0.0604,-12.27562 -0.67437,-9.57582 0.21268,-14.92374 z m -68.77032,76.67419 0.23769,12.57112 c 0.18361,9.71099 -0.0772,12.83244 -1.14625,13.71969 -0.84874,0.70439 -6.57931,1.25698 -14.81801,1.42888 l -13.43405,0.27986 -0.28321,11.92046 c -0.2106,8.86433 0.0458,12.12921 1,12.73469 0.70577,0.44782 5.45877,0.82112 10.56224,0.82954 l 9.27902,0.0153 -0.27902,13.25 -0.27903,13.25 -34.27634,0.26316 c -27.67191,0.21245 -34.37403,0.009 -34.78339,-1.05822 l 0,10e-6 c -0.27888,-0.72675 -0.37953,-6.69518 -0.22366,-13.26316 l 0.28339,-11.94178 10,-0.5 10,-0.5 0.27988,-12.75 0.27987,-12.75 -8.97796,0 -8.97796,0 -5.80191,-4.83571 c -3.19106,-2.65965 -6.29051,-5.47215 -6.88769,-6.25 -1.62143,-2.11203 -21.69607,-98.03246 -20.72076,-99.00776 0.46179,-0.46179 6.00717,-1.95943 12.32307,-3.32808 8.93697,-1.93665 11.74105,-2.22126 12.64508,-1.28346 0.63889,0.66275 5.19315,20.23426 10.12056,43.49224 4.92742,23.25797 9.19117,42.51945 9.475,42.80328 0.28383,0.28384 3.08417,0.37958 6.22296,0.21278 l 5.7069,-0.30329"
         style="fill:#e95420;fill-opacity:1" />
      <path
         inkscape:connector-curvature="0"
         id="path4149"
         d="m 237.58918,923.90613 c -6.6882,-3.40292 -6.61073,-2.93991 -7.16389,-42.81828 l -0.5,-36.0459 -35.45741,-0.69365 c -19.50158,-0.38151 -36.48082,-0.95051 -37.73166,-1.26445 -3.32542,-0.83463 -9.40115,-6.51358 -10.95989,-10.24416 -1.06725,-2.55429 -1.35104,-12.74844 -1.35104,-48.53122 0,-50.80601 -0.2414,-49.01472 7.44443,-55.24147 3.7049,-3.00155 3.84331,-3.0276 17.81888,-3.35367 7.74674,-0.18074 15.59124,-0.0461 17.43222,0.29932 4.63536,0.8696 10.06068,5.94529 12.79106,11.96675 2.78183,6.13492 28.40215,32.20296 30.76045,31.29799 0.78867,-0.30264 9.71823,-6.59146 19.84345,-13.97515 10.12523,-7.3837 19.39243,-13.95037 20.59377,-14.5926 1.20134,-0.64223 4.29178,-1.16769 6.86765,-1.16769 4.10696,0 5.16122,0.47783 8.56574,3.88235 3.53338,3.53339 3.88235,4.35888 3.88235,9.18384 0,5.0403 -0.24214,5.53488 -4.91495,10.03887 -2.70322,2.60556 -6.19072,5.54933 -7.75,6.54171 -1.55928,0.99239 -12.02319,8.52616 -23.25315,16.74173 -27.70875,20.27105 -28.61175,20.34281 -44.41627,3.52972 -4.17733,-4.4439 -8.061,-7.7919 -8.63038,-7.44 -1.58831,0.98162 -1.38622,33.17659 0.21475,34.21276 0.6875,0.44496 11.15,0.92787 23.25,1.07312 13.25546,0.15913 23.10338,0.70848 24.77595,1.38207 1.52677,0.61488 3.77677,2.52103 5,4.2359 2.21967,3.11179 2.22405,3.20661 2.22405,48.16191 0,41.35038 -0.14464,45.26473 -1.76393,47.73607 -3.85445,5.88264 -11.59888,8.12332 -17.57218,5.08413 z M 171.6079,717.64016 c -18.18356,-6.28018 -23.0375,-30.3603 -8.6638,-42.98058 5.31662,-4.66806 9.9671,-6.4286 16.98119,-6.4286 23.51252,0 34.28153,28.67044 16.71651,44.50453 -4.0886,3.68569 -12.06961,6.83834 -17.14801,6.77379 -1.41268,-0.018 -4.96132,-0.85907 -7.88589,-1.86914 z"
         style="fill:#063c4f;fill-opacity:0.94117647" />
      <path
         inkscape:connector-curvature="0"
         id="path4157"
         d="m 325.79141,668.54195 63.13388,19.66551 -0.73191,47.00085 -62.33132,20.33364 z"
         style="fill:#ffffff;fill-opacity:1;fill-rule:evenodd;stroke:none;stroke-width:1px;stroke-linecap:butt;stroke-linejoin:miter;stroke-opacity:1" />
      <path
         sodipodi:nodetypes="ccccc"
         inkscape:connector-curvature="0"
         id="path4159"
         d="m 341.11581,760.89914 -0.38849,-6.45609 33.15203,-8.45689 0.0459,15.05579 z"
         style="fill:#ffffff;fill-opacity:1;fill-rule:evenodd;stroke:none;stroke-width:1px;stroke-linecap:butt;stroke-linejoin:miter;stroke-opacity:1" />
    </g>
  </g>
</svg>
